<svg width="48" height="57" viewBox="0 0 48 57" fill="none" xmlns="http://www.w3.org/2000/svg">
<path fill-rule="evenodd" clip-rule="evenodd" d="M32.6685 4.7429C32.9073 2.60925 31.3947 0.682598 29.261 0.443757C27.1274 0.188993 25.2007 1.71758 24.9619 3.85122C24.6753 6.2874 25.0733 9.20126 25.5829 12.1947C27 12.6247 28.3693 13.2456 29.6432 13.9781C31.0125 10.7458 32.35 7.5453 32.6685 4.7429ZM47.6518 14.1055C46.8079 12.131 44.515 11.2394 42.5406 12.0833C39.9452 13.2138 37.2542 15.4271 34.5474 17.704C35.5664 18.7071 36.5218 19.8377 37.3338 21.0637C40.4069 20.6816 43.3526 20.2198 45.6296 19.2326C47.604 18.3568 48.5116 16.064 47.6518 14.1055ZM41.1075 3.692C39.3879 2.41818 36.9517 2.76848 35.6779 4.48813C33.7353 7.09946 32.4296 11.0005 31.0125 14.8061C31.4902 15.1245 31.936 15.443 32.3659 15.7774C32.6844 16.0321 33.0188 16.3028 33.3532 16.5735C36.6014 14.1214 39.977 11.733 41.9196 9.12165C43.1934 7.40199 42.8272 4.96581 41.1075 3.692Z" fill="#53B175"/>
<path d="M33.7195 34.8688C32.5252 36.1585 31.2514 37.3527 29.898 38.5151C28.0032 40.1551 26.0765 41.7474 24.118 43.276C22.0162 41.9862 20.5036 41.3334 20.2488 41.6678C20.0259 41.9703 20.9016 43.0849 22.478 44.5339C17.1916 48.4668 11.6028 51.9379 5.5999 54.7881C4.66045 55.2339 3.67324 55.5524 2.70196 55.9027C2.44719 55.9982 2.17651 55.9982 2.06505 56.0141C0.536464 56.1893 0.0747049 55.7753 0.138396 54.3741C0.329469 50.0113 1.6829 45.9191 3.0841 41.8429C3.46625 40.7283 3.86432 39.6137 4.27831 38.4991C6.39603 39.7889 7.90869 40.4576 8.16346 40.1233C8.43414 39.757 7.16032 38.2921 5.02668 36.461C6.55526 32.5122 8.25899 28.627 10.2653 24.9011C14.2778 27.8787 17.8445 29.8372 18.2425 29.2958C18.6406 28.7544 15.6949 25.8724 11.6346 22.863L11.4595 22.7356C12.1601 21.5414 12.8925 20.3472 13.6727 19.1849C14.644 17.72 15.8382 16.3825 17.0165 15.0768C18.5928 13.3412 20.631 12.7521 22.9079 13.2616C30.2005 14.8857 35.264 19.0734 37.6524 26.2545C38.1301 27.7194 37.7001 29.1525 36.9518 30.4741C36.4422 31.3657 35.8849 32.2097 35.264 33.0058C31.4107 30.1875 28.0669 28.3723 27.6847 28.8818C27.3185 29.3913 29.9776 32.0186 33.7195 34.8688Z" fill="#F3603F"/>
</svg>
