<svg width="65" height="71" viewBox="0 0 65 71" fill="none" xmlns="http://www.w3.org/2000/svg">
<path d="M11.3254 49.5348C22.9266 60.6837 39.9963 64.5893 44.3685 65.2909C41.3714 44.5921 21.4345 30.0197 0.226129 34.3606C-2.62343 59.0203 21.9786 77.4472 44.6786 68.2625C44.6778 68.2447 44.676 68.2276 44.6749 68.2102C20.5909 65.2716 11.3254 49.5348 11.3254 49.5348Z" fill="#00CA44"/>
<path d="M64.7751 34.3606C62.3617 33.8666 59.8626 33.6069 57.3032 33.6069C48.6917 33.6069 40.7725 36.5525 34.4807 41.4802C37.664 44.4052 40.3654 47.8494 42.4606 51.6771C47.4125 48.8701 55.0906 44.1335 57.7937 40.2693C54.4084 46.4348 50.3958 49.2592 43.6064 53.9464C45.5027 58.0105 46.7388 62.4485 47.1543 67.1331C57.7383 61.7756 65 50.8061 65 38.1314C64.9999 36.8547 64.9181 35.5984 64.7751 34.3606Z" fill="#00CA44"/>
<path d="M23.6657 21.4372L26.0193 35.2211C27.7304 35.984 29.3719 36.8823 30.9316 37.9011L26.5743 20.8191C29.8542 19.3002 31.8623 14.4085 30.767 9.25576C29.5531 3.54406 24.9866 -0.324304 20.5667 0.615114C16.147 1.55453 13.5488 6.94594 14.7625 12.6576C15.8578 17.8106 19.6825 21.4619 23.6657 21.4372Z" fill="#F6921E"/>
<path d="M38.943 21.7203L34.886 37.6255C36.425 36.6488 38.0237 35.7975 39.6759 35.0799L41.8513 22.3389C45.465 22.2849 48.1819 18.3978 49.2775 13.2447C49.6359 11.5582 50.4658 7.00051 49.8675 4.14256C49.8205 3.91553 49.6207 3.75272 49.3884 3.75272C49.1565 3.7524 48.9569 3.91424 48.9079 4.14095L46.67 14.6724C46.6216 14.9013 46.4835 15.1019 46.2871 15.2286C46.0911 15.3565 45.8519 15.4007 45.6227 15.3523L45.572 15.3414C45.0952 15.24 44.7909 14.7711 44.8915 14.2943L47.1196 3.81468C47.2301 3.29624 46.8993 2.78717 46.3809 2.67696L46.3634 2.67341C46.1145 2.62048 45.8548 2.66857 45.6414 2.80717C45.4279 2.94562 45.2788 3.16345 45.2259 3.4121L42.9979 13.8917C42.9487 14.121 42.8117 14.3209 42.615 14.4487C42.4189 14.5767 42.1798 14.6209 41.9505 14.5722L41.9005 14.5612C41.4237 14.4597 41.1187 13.991 41.2205 13.5142L43.4474 3.03436C43.5003 2.78555 43.4519 2.52577 43.3138 2.31262C43.1749 2.09914 42.957 1.94956 42.7087 1.89631C42.1804 1.78449 41.662 2.12125 41.55 2.64904L39.3265 13.1112C39.2776 13.3405 39.14 13.5411 38.9436 13.6683C38.7469 13.7957 38.5076 13.8399 38.2792 13.7915L38.2285 13.7806C37.7517 13.6795 37.4474 13.2103 37.5485 12.7332L39.7967 2.15723C39.8437 1.93762 39.7346 1.71447 39.5332 1.61555C39.332 1.51664 39.0882 1.56699 38.943 1.73819C37.0699 3.95039 35.8922 8.41625 35.4888 10.3136C34.3937 15.4667 35.2939 20.123 38.943 21.7203Z" fill="#F6921E"/>
</svg>
